<svg xmlns="http://www.w3.org/2000/svg" xmlns:xlink="http://www.w3.org/1999/xlink" id="_0309_crossed_flags" class="illustrations_image" data-imageid="crossed-flags-56" style="width:166px" viewBox="0 0 500 500"><defs><linearGradient id="linear-gradient-crossed-flags-56" x1="660.32" x2="792.42" y1="2837.79" y2="2837.79" gradientTransform="matrix(1 0 0 -1 -527.02 2955.65)" gradientUnits="userSpaceOnUse"><stop offset="0" stop-color="#231f20" stop-opacity="0" style="-darkreader-inline-stopcolor:#1c1e1f"/><stop offset="1" stop-color="#231f20" style="-darkreader-inline-stopcolor:#1c1e1f"/></linearGradient><linearGradient xlink:href="#linear-gradient-crossed-flags-56" id="linear-gradient-2-crossed-flags-56" x1="732.75" x2="811.13" y1="2840.81" y2="2869.33"/><linearGradient xlink:href="#linear-gradient-crossed-flags-56" id="linear-gradient-3-crossed-flags-56" x1="877.76" x2="909.18" y1="2601.28" y2="2601.28"/><linearGradient xlink:href="#linear-gradient-crossed-flags-56" id="linear-gradient-4-crossed-flags-56" x1="898.95" x2="931.9" y1="2595.2" y2="2595.2"/><linearGradient xlink:href="#linear-gradient-crossed-flags-56" id="linear-gradient-5-crossed-flags-56" x1="900.28" x2="934.9" y1="2753.89" y2="2753.89"/><linearGradient xlink:href="#linear-gradient-crossed-flags-56" id="linear-gradient-6-crossed-flags-56" x1="875.69" x2="766.13" y1="2835.19" y2="2848.55"/><linearGradient xlink:href="#linear-gradient-crossed-flags-56" id="linear-gradient-7-crossed-flags-56" x1="127.31" x2="145.86" y1="210.1" y2="210.1"/><linearGradient xlink:href="#linear-gradient-crossed-flags-56" id="linear-gradient-8-crossed-flags-56" x1="636.73" x2="722.98" y1="2588.47" y2="2588.47"/><linearGradient xlink:href="#linear-gradient-crossed-flags-56" id="linear-gradient-9-crossed-flags-56" x1="643.09" x2="676.37" y1="2770.4" y2="2770.4"/><style>.cls-11_crossed-flags-56,.cls-12_crossed-flags-56,.cls-13_crossed-flags-56,.cls-14_crossed-flags-56,.cls-15_crossed-flags-56,.cls-2_crossed-flags-56{stroke-width:0}.cls-2_crossed-flags-56{isolation:isolate;opacity:.4;fill:#68e1fd}.cls-15_crossed-flags-56{fill:#68e1fd}.cls-11_crossed-flags-56{fill:#231f20}.cls-12_crossed-flags-56{fill:#c14834}.cls-13_crossed-flags-56{fill:#fff}.cls-14_crossed-flags-56{fill:#ffb4a3}</style></defs><path d="M486.41 402.51c-1 2.86-2.23 5.65-3.66 8.32-14.09 26.95-45.97 42.13-76.69 46.79-46.34 7.02-93.26-3.77-139.95-7.85-38.21-3.36-76.71-2.17-114.96.76-23.03 1.8-47.19 4.04-68.27-5.32-17.24-7.59-29.9-21.99-38.4-39.01a132.998 132.998 0 0 1-12.25-38.82c-5.06-31.89-1.52-64.54-4.33-96.71-1.65-17.71-5.08-35.33-4.9-53.13.64-36.44 16.44-70.97 43.59-95.27 12.05-10.66 25.94-18.99 38.91-28.51 25.15-18.53 46.94-41.85 74.27-56.97 27.33-15.12 63.47-20.53 88.67-2.06 9.59-.92 22.28-2.17 31.83-.99 9.55 1.18 19.1 4.56 26.01 11.24 4.83 4.65 8.16 10.63 12.25 15.94 5.56 7.31 14.33 18.29 23.24 20.59 27.59 6.96 58.74-3.89 84.19 8.89 21.33 10.63 32.16 35.37 34.57 59.06 2.41 23.69-2.02 47.52-2.81 71.34-1.58 47.58 11.29 94.53 13.09 142.11.51 13.35.1 27.03-4.4 39.61Z" class="cls-2_crossed-flags-56 targetColor" style="fill:#e3930a;darkreader-inline-fill:#ffbe34"/><path d="M482.75 410.83c-14.09 26.95-45.97 42.13-76.69 46.79-46.34 7.02-93.26-3.77-139.95-7.85-38.21-3.36-76.71-2.17-114.96.76-23.03 1.8-47.19 4.04-68.27-5.32-17.24-7.59-29.9-21.99-38.4-39.01 18.56 1.64 37.93.15 56.5.28 88.07.45 176.13 1.27 264.18 2.47 39.19.56 78.39 1.18 117.6 1.87Z" class="cls-2_crossed-flags-56 targetColor" style="fill:#e3930a;darkreader-inline-fill:#ffbe34"/><path d="M371.93 235.91s-3.47 5.19-4.03 5.18-34.98-8.04-34.98-8.04-3.25-4.59-7.26-5.23c-2.8-.46-6.76-1.83-7.31-2.42s-.27 2.61 2.17 4.01c.68.39 2.41 1.08 1.35 1.74s-2.58-.68-3.33.42c-.37.55 0 1.27.34 1.85.39.77.64 1.61.72 2.47.05.55-.41 2.17-.17 2.57.41.72 3.08 1.01 3.83 1.18 3.11.77 6.3 1.21 9.5 1.32 3.96.08 28.03 14.7 34.83 14.83 6.79.13 14.89-8.78 14.89-8.78s-.85-7.77-4.54-10.19c-3.7-2.42-5.99-.93-5.99-.93Z" class="cls-14_crossed-flags-56"/><path d="M379.43 215.35s-4.28-.55-7.7 3.96-11.71 26.91-11.71 26.91 4.2-1.79 8.86 2.17c4.66 3.96 4.51 7.59 4.51 7.59s13.31-13.21 13.78-19.82c.48-6.61-.75-12.79-7.74-20.79Z" class="cls-15_crossed-flags-56 targetColor" style="fill:#e3930a;darkreader-inline-fill:#ffbe34"/><path d="M192.5 77.69c-3.58 2.68-7.09 5.66-9.17 9.6-2.24 4.27-2.64 9.36-5.17 13.47-4.71 7.66-14.82 9.43-23.64 11.12-8.82 1.69-18.97 5.42-21.22 14.09a214.97 214.97 0 0 1 41.88 45.64 25.49 25.49 0 0 1 15.42-21.37c5.73-2.34 12-2.46 18.08-3.03 5.24-.5 12.09-.75 16.5-3.88s6.72-8.61 10.11-12.94c3.57-4.46 8.41-7.73 13.87-9.4 2.77-.86 5.65-1.31 8.55-1.32 2.1 0 5.89 1.39 7.68.7-2.29-4.61-5.69-8.94-8.33-13.38-2.64-4.44-5.34-8.95-7.9-13.49-3.81-6.77-8.2-21.89-14.24-26.45-11.45-8.63-33.42 3.89-42.42 10.64Z" style="stroke-width:0;fill:url(#linear-gradient)"/><path d="m235.337 66.774 2.972-1.547 102.466 196.837-2.971 1.547z" class="cls-11_crossed-flags-56"/><path d="M192.5 77.69c-3.58 2.68-7.09 5.66-9.17 9.6-2.24 4.27-2.64 9.36-5.17 13.47-4.71 7.66-14.82 9.43-23.64 11.12-8.82 1.69-18.97 5.42-21.22 14.09a214.97 214.97 0 0 1 41.88 45.64 25.49 25.49 0 0 1 15.42-21.37c5.73-2.34 12-2.46 18.08-3.03 5.24-.5 12.09-.75 16.5-3.88s6.72-8.61 10.11-12.94c3.57-4.46 8.41-7.73 13.87-9.4 2.77-.86 5.65-1.31 8.55-1.32 2.1 0 5.89 1.39 7.68.7-2.29-4.61-5.69-8.94-8.33-13.38-2.64-4.44-5.34-8.95-7.9-13.49-3.81-6.77-8.2-21.89-14.24-26.45-11.45-8.63-33.42 3.89-42.42 10.64Z" class="cls-15_crossed-flags-56 targetColor" style="fill:#e3930a;darkreader-inline-fill:#ffbe34"/><path d="M192.5 77.69c-3.58 2.68-7.09 5.66-9.17 9.6-2.24 4.27-2.64 9.36-5.17 13.47-4.71 7.66-14.82 9.43-23.64 11.12-8.82 1.69-18.97 5.42-21.22 14.09a214.97 214.97 0 0 1 41.88 45.64 25.49 25.49 0 0 1 15.42-21.37c5.73-2.34 12-2.46 18.08-3.03 5.24-.5 12.09-.75 16.5-3.88s6.72-8.61 10.11-12.94c3.57-4.46 8.41-7.73 13.87-9.4 2.77-.86 5.65-1.31 8.55-1.32 2.1 0 5.89 1.39 7.68.7-2.29-4.61-5.69-8.94-8.33-13.38-2.64-4.44-5.34-8.95-7.9-13.49-3.81-6.77-8.2-21.89-14.24-26.45-11.45-8.63-33.42 3.89-42.42 10.64Z" style="fill:url(#linear-gradient-2-crossed-flags-56);stroke-width:0"/><path d="m403.73 423.3.69 9.7a9.41 9.41 0 0 1-5.58 1.3c-2.95-.37-8.85-6.44-10.27-6.13l.05-2.89M369.22 416.38l.7 9.7c-1.68 1-3.63 1.45-5.58 1.3-2.96-.38-8.86-6.44-10.28-6.14l.05-2.88" class="cls-14_crossed-flags-56"/><path d="M362.17 287.49s-11.82 65.83-11.39 67.03c.43 1.2 2.89 64.92 2.89 64.92s6.64 4.49 15.99 0l1.46-63.93 11.05-59.7s-15.32-9.99-20.01-8.32Z" class="cls-11_crossed-flags-56"/><path d="M362.17 287.49s-11.82 65.83-11.39 67.03c.43 1.2 2.89 64.92 2.89 64.92s6.64 4.49 15.99 0l1.46-63.93 11.05-59.7s-15.32-9.99-20.01-8.32Z" style="fill:url(#linear-gradient-3-crossed-flags-56);stroke-width:0"/><path d="M371.67 293.17s5.2 69.07 5.78 70.2 11.13 62.85 11.13 62.85 7.37 4.72 16.06-.94l-6.87-63.52 3.19-60.68s-24.82-10.18-29.28-7.9Z" class="cls-11_crossed-flags-56"/><path d="M371.93 293.17s5.19 69.07 5.78 70.2c.59 1.13 11.12 62.85 11.12 62.85s7.38 4.72 16.06-.94L398 361.76l3.2-60.68s-24.83-10.18-29.26-7.9Z" style="fill:url(#linear-gradient-4-crossed-flags-56);stroke-width:0"/><path d="M405.42 213.75c-.48-.14-.98-.21-1.48-.22-8.67-.23-21.03 2.24-28.17 7.59-8.8 6.61-12.18 18.29-12.87 29.26-.69 10.97.73 22.11-1 32.98-1.16 7.35-3.35 16.06 1.95 21.28 2.01 1.74 4.39 3.01 6.96 3.72 7.59 2.58 13.69 2.61 21.45 2.77.62 0 12.4.14 12.36-.22 0-.09-1.86-20.47-2.99-29.52-1.13-9.05 12.36-40.92 10.66-53.38-.73-5.47-1.94-12.9-6.86-14.26Z" class="cls-15_crossed-flags-56 targetColor" style="fill:#e3930a;darkreader-inline-fill:#ffbe34"/><path d="M380 240.89s-3.37 5.26-3.93 5.26-35.11-7.36-35.11-7.36-3.39-4.53-7.36-5.1c-2.81-.39-6.79-1.69-7.37-2.26s-.22 2.61 2.28 3.97c.4.23 2.24 1.08 1.91 1.74-.34.66-2.07.31-2.5.29-1.46-.08-2.91-.27-4.33-.48-1.42-.21-3.86-.9-3.07 1.57.21.64.61 1.21.81 1.85.09.68.33 1.33.7 1.91.39.33.85.55 1.35.65.92.3 1.8.7 2.62 1.21 1.04.45 2.13.75 3.25.91 1.25.35 2.51.61 3.78.83 2.61.51 5.27.78 7.93.82 3.97 0 28.32 14.16 35.11 14.16s14.72-9.06 14.72-9.06-.99-7.76-4.74-10.11c-3.75-2.35-6.06-.81-6.06-.81ZM373.8 175.37c-1.83 5.48-.83 10.5-4.27 15.76-2.17 3.25-.91 3.67-.26 6.9.56 2.83-2.84 9.06 3.39 9.62s9.63 4.53 10.76 9.62c0 0 2.83-3.39 6.23-7.92 3.4-4.53-.56-7.37-1.7-15.29s-2.26-16.99-6.27-19.78-6.74-2.31-7.88 1.08Z" class="cls-14_crossed-flags-56"/><path d="M374.37 171.98s-2.83 2.83.56 5.09 8.5 2.83 7.93 7.93 0 10.75 1.7 13 4.53 8.48 2.83 11.92c-1.7 3.44-7.93 1.7-6.79 9.06s2.26 14.15-1.14 14.15c0 0 .57 5.67 6.23-.56s3.97-13 10.2-15.29c6.23-2.29 10.19-2.26 11.32-6.79s-1.14-11.92 0-16.42c1.14-4.5 1.08-9.06-2.26-15.85-3.35-6.79-8.5-10.2-12.46-10.2s-16.98 2.25-18.12 3.96Z" class="cls-11_crossed-flags-56"/><path d="M374.37 171.98s-2.83 2.83.56 5.09 8.5 2.83 7.93 7.93 0 10.75 1.7 13 4.53 8.48 2.83 11.92c-1.7 3.44-7.93 1.7-6.79 9.06s2.26 14.15-1.14 14.15c0 0 .57 5.67 6.23-.56s3.97-13 10.2-15.29c6.23-2.29 10.19-2.26 11.32-6.79s-1.14-11.92 0-16.42c1.14-4.5 1.08-9.06-2.26-15.85-3.35-6.79-8.5-10.2-12.46-10.2s-16.98 2.25-18.12 3.96Z" style="fill:url(#linear-gradient-5-crossed-flags-56);stroke-width:0"/><path d="M406.6 217.27s-3.96-1.7-8.48 1.7-18.61 22.65-18.61 22.65 4.53-.56 7.93 4.53 2.26 8.5 2.26 8.5 16.42-9.06 18.68-15.29c2.26-6.23 2.77-12.46-1.79-22.08Z" class="cls-15_crossed-flags-56 targetColor" style="fill:#e3930a;darkreader-inline-fill:#ffbe34"/><path d="M340.65 427.67c-.76.63-1.58 1.5-1.35 2.46.13.43.4.81.76 1.08 1.73 1.53 4.23 1.76 6.5 1.82 7.55.18 15.08-.75 22.36-2.75.54-.04.94-.51.89-1.05 0-.04 0-.07-.01-.11.03-1.62-.29-3.22-.95-4.69-2.43 1.31-5.42.47-7.95-.68-3.44-1.58-6.3-3.32-10.03-2.1a32.989 32.989 0 0 0-10.2 6.03Z" class="cls-11_crossed-flags-56"/><path d="m403.96 423.94.69 9.75c-1.68 1-3.63 1.45-5.58 1.29-2.95-.37-8.85-6.43-10.27-6.13l.05-2.88" class="cls-14_crossed-flags-56"/><path d="M375.4 435.24c-.77.63-1.58 1.5-1.35 2.46.14.43.4.81.75 1.08 1.74 1.53 4.24 1.76 6.5 1.81 7.54.18 15.07-.74 22.34-2.74.24-.04.46-.15.64-.31.18-.25.27-.55.24-.86.03-1.62-.29-3.22-.95-4.69-2.43 1.32-5.42.48-7.94-.68-3.45-1.58-6.3-3.32-10.03-2.1a33.085 33.085 0 0 0-10.19 6.04Z" class="cls-11_crossed-flags-56"/><path d="M100.04 164.3c-.8-2.86-.82-5.88-.07-8.76.89-2.97 2.43-5.7 4.52-7.99a10.5 10.5 0 0 1 6.3-.1c2.83 1.08-1.17 6.2-.8 8.67.37 2.47 2.7-4.33 4.06-3.73s-2.17 9.88-4.75 11.04" class="cls-12_crossed-flags-56"/><path d="M354.56 80.17c3.58 2.68 7.09 5.66 9.17 9.6 2.24 4.27 2.65 9.36 5.18 13.47 4.7 7.66 14.81 9.43 23.63 11.12 8.82 1.69 18.97 5.42 21.22 14.09a214.97 214.97 0 0 0-41.88 45.64 25.464 25.464 0 0 0-15.42-21.37c-5.72-2.34-12-2.46-18.08-3.03-5.24-.5-12.09-.75-16.5-3.88s-6.71-8.61-10.11-12.94a28.401 28.401 0 0 0-13.87-9.4c-2.77-.86-5.64-1.31-8.54-1.32-2.11 0-5.89 1.39-7.69.7 2.29-4.64 5.69-8.97 8.39-13.42 2.7-4.44 5.34-8.95 7.9-13.49 3.83-6.77 8.2-21.89 14.25-26.45 11.43-8.59 33.35 3.92 42.36 10.67Z" class="cls-15_crossed-flags-56 targetColor" style="fill:#e3930a;darkreader-inline-fill:#ffbe34"/><path d="M354.56 80.17c3.58 2.68 7.09 5.66 9.17 9.6 2.24 4.27 2.65 9.36 5.18 13.47 4.7 7.66 14.81 9.43 23.63 11.12 8.82 1.69 18.97 5.42 21.22 14.09a214.97 214.97 0 0 0-41.88 45.64 25.464 25.464 0 0 0-15.42-21.37c-5.72-2.34-12-2.46-18.08-3.03-5.24-.5-12.09-.75-16.5-3.88s-6.71-8.61-10.11-12.94a28.401 28.401 0 0 0-13.87-9.4c-2.77-.86-5.64-1.31-8.54-1.32-2.11 0-5.89 1.39-7.69.7 2.29-4.64 5.69-8.97 8.39-13.42 2.7-4.44 5.34-8.95 7.9-13.49 3.83-6.77 8.2-21.89 14.25-26.45 11.43-8.59 33.35 3.92 42.36 10.67Z" style="fill:url(#linear-gradient-6-crossed-flags-56);stroke-width:0"/><path d="M206.261 264.53 308.728 67.694l2.971 1.546-102.466 196.837z" class="cls-11_crossed-flags-56"/><path d="M128.57 211.87s-14.43-4.33-15.89-2.93c-1.29 1.3 11.35 92.4 12 96.29.65 3.89 22.05 2.59 31.12 0 6.05-1.81 11.91-4.19 17.51-7.1 0 0-10.45-83.09-12.4-84.38s-16.04-2.43-16.04-2.43l-16.31.54Z" class="cls-15_crossed-flags-56 targetColor" style="fill:#e3930a;darkreader-inline-fill:#ffbe34"/><path d="M127.57 242.53s-9.75-2.54-12.88-8.52c-3.13-5.98-20-33.51-19.51-39.9.57-7.4 4.16-31.73 4.16-31.73s.4-1.98 5.09-1.38c4.69.61 5.42 3.25 5.42 3.25l.41 28.55 14.31 26.26s5.81 18.11 2.99 23.46Z" class="cls-15_crossed-flags-56 targetColor" style="fill:#e3930a;darkreader-inline-fill:#ffbe34"/><path d="M180.73 432.32s2.74 10.35 4.02 11.11 5.78-1.64 8.38-3.52c2.6-1.89 1.67-5.89 1.67-5.89l-1.08-3.14-12.98 1.45ZM111.86 427.34s-5 14.09-4.5 15.46c.5 1.38 6.61-.64 9.82-.43s4.43-4.76 4.43-4.76l1.14-3.14-10.89-7.13ZM127.28 204.09s1.94 8.43 1.29 11.67c-.65 3.24 4.54 12.32 11.02 12.32s6.5-11.02 6.5-12.32-1.95-1.94-1.3-5.18c.65-3.24-16.87-10.38-17.51-6.49Z" class="cls-12_crossed-flags-56"/><path d="M144.78 210.58c-.34 1.53.06 3.14 1.08 4.33a8.188 8.188 0 0 1-5.34 2.35c-3.89 0-9.75-3.25-12.32-9.07l-.14-.33c-.37-2.17-.75-3.81-.75-3.81.61-3.86 18.12 3.28 17.47 6.52Z" style="fill:url(#linear-gradient-7-crossed-flags-56);stroke-width:0"/><path d="M128.65 214.55s5.22 12.23 9.68 13.52c0 0 1.21.65-2.03 2.59-3.24 1.94-12.32-7.77-11.02-14.91a5.368 5.368 0 0 1 3.25-4.14l.12 2.94ZM144.78 211.87s1.44 9.01-2.17 15.17c0 0 1.55 2.31 2.85 2.31s4.54-7.78 3.25-13.62c-.8-3.37-3.28-4.78-3.93-3.86Z" class="cls-13_crossed-flags-56"/><path d="m124.67 305.23 7.09 56.35-22.05 72.93s4.06 2.24 12.48 1.59l29.94-72.11.42-45.84 9.69 39.57 18.65 77.1s9.48 2.09 15.06-1.93l-12.28-75.17-10.37-59.6-48.63 7.1Z" class="cls-11_crossed-flags-56"/><path d="M148.67 185.28s1.3 16.86 0 21.4c-1.3 4.54-5.19 8.43-9.08 8.43s-9.75-3.25-12.31-9.08c-2.56-5.83-3.89-20.1-3.25-22.04.64-1.94 4.56-8.07 14.92-7.13 7.13.64 9.72 5.83 9.72 8.42Z" class="cls-12_crossed-flags-56"/><path d="M124.82 193.6c.6 1.32 2.65 1.39 3.71.38a4.782 4.782 0 0 0 1.08-4.07c-.17-1.44-.67-2.84-.76-4.33a.953.953 0 0 1 1.17-1.2c1.95.07 4.25.83 5.62-.56.81-.82 1.08-2.28 2.17-2.67.91-.33 1.86.27 2.72.73 2.38 1.24 6.66 2.05 7.98-1.08.61-1.44.13-3.2.26-4.71s1.17-3.72.15-5.24c-.33-.5-.89-.93-.89-1.54.1-.49.34-.94.68-1.3.95-1.36.92-3.19-.08-4.52-2.42 1.6-5.18 2.62-8.06 2.96-4.89.56-10.24-.74-14.49 1.73a11.347 11.347 0 0 0-5.16 8.51c-.05 1.03-.2 2.06-.43 3.07-.6 1.93-2.33 1.86-3.33 3.31a6.745 6.745 0 0 0-.5 5.76c.39.74.59 1.56.56 2.39-.21.61-.48 1.19-.82 1.73-.88 1.96.44 4.17 1.81 5.83 1.79 2.17 3.74 4.33 5.65 6.37.66.7 1.25 1.61 2.25 1.9.72.2 3.14-.43 1.73-.99M209.2 440.27c1.38.4 2.97 1 3.33 2.37.48 1.78-1.44 3.25-3.25 3.83-2.7.73-5.5 1.04-8.3.92-4.91 0-9.82 0-14.72-.24-.45.02-.9-.06-1.31-.24a2.861 2.861 0 0 1-1.22-1.99c-.42-1.7-.61-3.46-.55-5.21 0-.3.06-.61.2-.88.81-1.33 5.05.3 6.37.23 2.3-.12 3.72-1.31 5.72-2.17 2-.86 3.6.29 5.57.99 2.7.98 5.47 1.64 8.17 2.39ZM132.62 442.83c1.38.41 2.96 1.08 3.31 2.43.44 1.78-1.51 3.25-3.25 3.76-2.73.7-5.54.97-8.35.82-4.9-.05-9.81-.2-14.7-.47-.45 0-.9-.08-1.31-.26a2.94 2.94 0 0 1-1.19-2.02 19.1 19.1 0 0 1-.47-5.22c0-.31.06-.61.21-.88.82-1.31 5.04.39 6.37.34 2.29-.09 3.73-1.26 5.74-2.04 2.02-.78 3.6.35 5.56 1.08 2.65.94 5.41 1.64 8.09 2.45Z" class="cls-11_crossed-flags-56"/><path d="m160.91 213.72 31.42 25.04 25.94-12.29-.46 13.66-26.85 15.02-28.67-18.21-1.38-23.22z" class="cls-15_crossed-flags-56 targetColor" style="fill:#e3930a;darkreader-inline-fill:#ffbe34"/><path d="M225.97 220.45a9.896 9.896 0 0 1 5.42-1.54 5.7 5.7 0 0 1 3.68.94c.74.65 1.28 1.51 1.55 2.46.7 2.35.88 4.83.52 7.26a8.518 8.518 0 0 1-1.34 4.24c-.71.92-1.67 1.62-2.76 2.02a9.04 9.04 0 0 1-3.37.63c-.95 0-1.9-.18-2.85-.2-2.1.16-4.17.61-6.14 1.34-1.22.35-2.72.56-3.63-.33-.58-.73-.88-1.64-.85-2.57-.21-3.12.2-5.79 2.57-7.94 2.27-2.25 4.68-4.36 7.21-6.32Z" class="cls-12_crossed-flags-56"/><path d="m124.67 305.23 7.09 56.35-22.05 72.93s4.06 2.24 12.48 1.59l29.94-72.11.42-45.84 9.69 39.57 18.65 77.1s9.48 2.09 15.06-1.93l-12.28-75.17-10.37-59.6-48.63 7.1Z" style="fill:url(#linear-gradient-8-crossed-flags-56);stroke-width:0"/><path d="M124.82 193.6c.6 1.32 2.65 1.39 3.71.38a4.782 4.782 0 0 0 1.08-4.07c-.17-1.44-.67-2.84-.76-4.33a.953.953 0 0 1 1.17-1.2c1.95.07 4.25.83 5.62-.56.81-.82 1.08-2.28 2.17-2.67.91-.33 1.86.27 2.72.73 2.38 1.24 6.66 2.05 7.98-1.08.61-1.44.13-3.2.26-4.71s1.17-3.72.15-5.24c-.33-.5-.89-.93-.89-1.54.1-.49.34-.94.68-1.3.95-1.36.92-3.19-.08-4.52-2.42 1.6-5.18 2.62-8.06 2.96-4.89.56-10.24-.74-14.49 1.73a11.347 11.347 0 0 0-5.16 8.51c-.05 1.03-.2 2.06-.43 3.07-.6 1.93-2.33 1.86-3.33 3.31a6.745 6.745 0 0 0-.5 5.76c.39.74.59 1.56.56 2.39-.21.61-.48 1.19-.82 1.73-.88 1.96.44 4.17 1.81 5.83 1.79 2.17 3.74 4.33 5.65 6.37.66.7 1.25 1.61 2.25 1.9.72.2 3.14-.43 1.73-.99" style="fill:url(#linear-gradient-9-crossed-flags-56);stroke-width:0"/><path d="M126.35 195.65s-.65-3.89-3.25-2.59c-2.6 1.3.64 8.42 1.94 9.07.58.36 1.25.55 1.94.55" class="cls-12_crossed-flags-56"/></svg>